<svg width="64" height="64" viewBox="0 0 64 64" fill="none" xmlns="http://www.w3.org/2000/svg">
<rect width="64" height="64" rx="32" fill="#ECECFF"/>
<g clip-path="url(#clip0_889_12168)">
<path d="M45.0078 24.1408V48.5513C45.0078 49.3517 44.361 50 43.5625 50H20.4375C19.639 50 18.9922 49.3517 18.9922 48.5513V15.4487C18.9922 14.6483 19.639 14 20.4375 14H34.8907L45.0078 24.1408Z" fill="#2623CC"/>
<path d="M42.8399 21.9678V48.5512C42.8399 49.3516 42.1931 50 41.3945 50H43.5625C44.361 50 45.0078 49.3517 45.0078 48.5512V24.1408L42.8399 21.9678Z" fill="#3A38B4"/>
<path d="M45.0078 24.1408H36.336C35.5377 24.1408 34.8906 23.4922 34.8906 22.6921V14L45.0078 24.1408Z" fill="#ACABE3"/>
<path d="M24.9738 31.5657C25.5739 31.5657 26.0603 31.0792 26.0603 30.4791C26.0603 29.879 25.5739 29.3926 24.9738 29.3926C24.3737 29.3926 23.8873 29.879 23.8873 30.4791C23.8873 31.0792 24.3737 31.5657 24.9738 31.5657Z" fill="#FAFAFA"/>
<path d="M39.0262 31.5657H29.8994C29.2994 31.5657 28.8129 31.0792 28.8129 30.4791C28.8129 29.8791 29.2993 29.3926 29.8994 29.3926H39.0262C39.6262 29.3926 40.1127 29.879 40.1127 30.4791C40.1126 31.0792 39.6262 31.5657 39.0262 31.5657Z" fill="#FAFAFA"/>
<path d="M24.9738 35.9118C25.5739 35.9118 26.0603 35.4254 26.0603 34.8253C26.0603 34.2252 25.5739 33.7388 24.9738 33.7388C24.3737 33.7388 23.8873 34.2252 23.8873 34.8253C23.8873 35.4254 24.3737 35.9118 24.9738 35.9118Z" fill="#FAFAFA"/>
<path d="M39.0262 35.9118H29.8994C29.2994 35.9118 28.8129 35.4254 28.8129 34.8253C28.8129 34.2253 29.2993 33.7388 29.8994 33.7388H39.0262C39.6262 33.7388 40.1127 34.2252 40.1127 34.8253C40.1126 35.4254 39.6262 35.9118 39.0262 35.9118Z" fill="#FAFAFA"/>
<path d="M24.9738 40.258C25.5739 40.258 26.0603 39.7716 26.0603 39.1715C26.0603 38.5714 25.5739 38.085 24.9738 38.085C24.3737 38.085 23.8873 38.5714 23.8873 39.1715C23.8873 39.7716 24.3737 40.258 24.9738 40.258Z" fill="#FAFAFA"/>
<path d="M39.0262 40.258H29.8994C29.2994 40.258 28.8129 39.7716 28.8129 39.1715C28.8129 38.5715 29.2993 38.085 29.8994 38.085H39.0262C39.6262 38.085 40.1127 38.5714 40.1127 39.1715C40.1126 39.7715 39.6262 40.258 39.0262 40.258Z" fill="#FAFAFA"/>
</g>
<defs>
<clipPath id="clip0_889_12168">
<rect width="36" height="36" fill="white" transform="translate(14 14)"/>
</clipPath>
</defs>
</svg>
